# This file uses centimeters as units for non-parametric coordinates.

mtllib Wall.mtl
g default
v -2.000000 0.000000 2.000000
v 2.000000 0.000000 2.000000
v -2.000000 5.000000 2.000000
v 2.000000 5.000000 2.000000
v -2.000000 5.000000 -2.000000
v 2.000000 5.000000 -2.000000
v -2.000000 0.000000 -2.000000
v 2.000000 0.000000 -2.000000
vt 0.247958 0.385858
vt 0.488348 0.385858
vt 0.600870 0.012141
vt 0.488348 0.986835
vt 0.969130 0.986835
vt 0.940574 0.351846
vt 0.600870 0.012141
vt 0.728739 0.385858
vt 0.600870 0.351846
vt 0.940574 0.351846
vt 0.728739 0.986835
vt 0.007567 0.385858
vt 0.007567 0.986835
vt 0.247958 0.986835
vt 0.969130 0.385858
vt 0.940574 0.012141
vt 0.600870 0.351846
vt 0.940574 0.012141
vn 0.000000 0.000000 1.000000
vn 0.000000 0.000000 1.000000
vn 0.000000 0.000000 1.000000
vn 0.000000 0.000000 1.000000
vn 0.000000 1.000000 0.000000
vn 0.000000 1.000000 0.000000
vn 0.000000 1.000000 0.000000
vn 0.000000 1.000000 0.000000
vn 0.000000 0.000000 -1.000000
vn 0.000000 0.000000 -1.000000
vn 0.000000 0.000000 -1.000000
vn 0.000000 0.000000 -1.000000
vn 0.000000 -1.000000 0.000000
vn 0.000000 -1.000000 0.000000
vn 0.000000 -1.000000 0.000000
vn 0.000000 -1.000000 0.000000
vn 1.000000 0.000000 0.000000
vn 1.000000 0.000000 0.000000
vn 1.000000 0.000000 0.000000
vn 1.000000 0.000000 0.000000
vn -1.000000 0.000000 0.000000
vn -1.000000 0.000000 0.000000
vn -1.000000 0.000000 0.000000
vn -1.000000 0.000000 0.000000
s off
g pCube1
usemtl lambert2SG
f 1/1/1 2/2/2 4/4/3 3/14/4
f 3/3/5 4/18/6 6/6/7 5/17/8
f 5/5/9 6/11/10 8/8/11 7/15/12
f 7/7/13 8/16/14 2/10/15 1/9/16
f 2/2/17 8/8/18 6/11/19 4/4/20
f 7/12/21 1/1/22 3/14/23 5/13/24
